<?xml version="1.0" encoding="utf-8"?>
<!-- Generator: Adobe Illustrator 20.1.0, SVG Export Plug-In . SVG Version: 6.00 Build 0)  -->
<svg version="1.1" id="Laag_1" xmlns="http://www.w3.org/2000/svg" xmlns:xlink="http://www.w3.org/1999/xlink" x="0px" y="0px"
	 viewBox="0 0 1280 1280" style="enable-background:new 0 0 1280 1280;" xml:space="preserve">
<style type="text/css">
	.st0{fill:#81BF68;}
	.st1{fill:none;}
</style>
<path class="st0" d="M388.3,393.2l34.8,47.6H83.6c-6.7,0-13.3-0.8-19.6-2.5c-2.1-0.6-4.4-1.2-6.6-2L4.3,379.7
	c-2.8-8.7-4.1-18.1-4.1-27.9c0-2.5,0.2-4.9,0.3-7.2L77,262.7h216L388.3,393.2z"/>
<path class="st0" d="M788.8,440.8H514.6l-82.7-113.3l-47.3-64.8h196.2C682.7,262.7,767.8,339,788.8,440.8z"/>
<polygon class="st0" points="622.8,713.3 626,717.6 413.4,717.6 281.5,539.3 494.1,539.3 "/>
<path class="st0" d="M788.8,539.3c-0.5,2.3-0.9,4.6-1.5,6.7c-0.3,1.1-0.5,2.1-0.8,3.4c0,0.2-0.2,0.5-0.2,0.5
	c-0.5,1.8-0.9,3.7-1.5,5.5c-0.2,0.9-0.5,1.8-0.8,2.8c-0.5,1.2-0.8,2.5-1.1,3.7c-0.3,0.9-0.6,1.8-0.9,2.8c-0.3,0.9-0.6,1.8-0.9,2.8
	l0,0c-0.5,1.5-1.1,3.1-1.5,4.6c-0.5,0.9-0.8,2.1-1.2,3.1c-0.5,1.2-0.9,2.6-1.5,3.8c-0.8,1.7-1.2,3.2-2,4.9c-0.8,1.7-1.4,3.2-2.1,4.7
	c-0.5,1.2-0.9,2.3-1.5,3.5c-0.2,0.2-0.2,0.5-0.2,0.5c-0.5,0.8-0.8,1.5-1.1,2.3c0,0.2-0.2,0.2-0.2,0.2c-0.6,1.2-1.2,2.5-1.8,3.8
	c-0.9,1.7-1.7,3.4-2.6,4.9c-0.2,0.2-0.3,0.5-0.5,0.8c-0.8,1.4-1.5,2.8-2.3,4.1c-0.9,1.5-1.8,3.2-2.9,4.7c-0.9,1.5-2,3.2-2.9,4.7l0,0
	c-0.9,1.5-2,3.1-3.1,4.6c-0.9,1.4-1.8,2.8-2.9,4.1c-0.9,1.2-1.8,2.5-2.8,3.7c-1.4,1.8-2.9,3.8-4.3,5.7c-0.8,0.9-1.5,2-2.3,2.9
	c-0.8,0.9-1.5,1.8-2.5,2.9c-0.8,0.8-1.4,1.7-2.1,2.5c0,0.2-0.2,0.2-0.2,0.2c-2.5,2.8-4.9,5.5-7.5,8.1c-1.2,1.2-2.5,2.6-3.7,3.8
	c-2.8,2.8-5.4,5.2-8.3,7.8c-1.2,1.2-2.6,2.3-4,3.5c-1.4,1.2-2.8,2.5-4.1,3.5c-0.8,0.6-1.4,1.2-2.1,1.7c-0.8,0.6-1.4,1.1-2.1,1.7
	c-1.2,0.9-2.5,1.8-3.7,2.8l0,0c-0.5,0.3-0.9,0.8-1.4,0.9c-1.2,0.9-2.5,1.8-3.7,2.6c-1.5,0.9-2.9,2-4.4,3.1L586.2,539.1h202.6V539.3z
	"/>
<polygon class="st0" points="626,717.6 413.4,717.6 281.5,539.3 494.1,539.3 622.8,713.3 "/>
<path class="st0" d="M788.8,539.3c-0.5,2.3-0.9,4.6-1.5,6.7c-0.3,1.2-0.6,2.6-0.9,3.8c-0.5,1.8-0.9,3.7-1.5,5.5
	c-0.2,0.9-0.5,1.8-0.8,2.8c-0.5,1.2-0.8,2.5-1.1,3.7c-0.6,1.8-1.2,3.7-1.8,5.5c-0.5,1.5-1.1,3.1-1.5,4.6c-0.5,0.9-0.8,2.1-1.2,3.1
	c-0.5,1.2-0.9,2.6-1.5,3.8c-1.2,3.2-2.8,6.6-4.1,9.8c-0.6,1.2-1.2,2.8-1.8,4c-0.5,0.8-0.8,1.5-1.1,2.3c-0.6,1.2-1.2,2.8-2,4
	c-0.9,1.7-1.7,3.4-2.6,4.9c-0.2,0.2-0.3,0.5-0.5,0.8c-0.8,1.4-1.5,2.8-2.3,4.1c-0.9,1.5-1.8,3.2-2.9,4.7c-0.9,1.5-2,3.2-2.9,4.7l0,0
	c-0.9,1.5-2,3.1-3.1,4.6c-0.9,1.4-1.8,2.8-2.9,4.1c-2.3,3.2-4.6,6.3-6.9,9.3c-0.8,0.9-1.5,2-2.3,2.9c-0.8,0.9-1.5,1.8-2.5,2.9
	c-0.8,0.9-1.5,1.8-2.3,2.8c-2.5,2.8-4.9,5.5-7.5,8.1c-1.2,1.2-2.5,2.6-3.7,3.8c-2.8,2.8-5.4,5.2-8.3,7.8c-1.2,1.2-2.6,2.3-4,3.5
	c-1.4,1.2-2.8,2.5-4.1,3.5c-1.4,1.2-2.9,2.3-4.3,3.4c-1.2,0.9-2.5,1.8-3.8,2.8c-0.5,0.3-0.9,0.8-1.4,0.9c-1.2,0.9-2.5,1.8-3.7,2.6
	c-1.5,0.9-2.9,2-4.4,3.1L586,539.5h202.8V539.3z"/>
<path class="st0" d="M788.8,440.8c-21.1-101.9-106.1-178.1-208-178.1c-57.9,0-110.4,24.7-148.9,64.9L514.6,441h66.2
	c25.4,0,46.1,22.1,46.1,49.3c0,25.3-17.8,46.1-40.7,48.9c-0.2,0-0.2,0.2-0.5,0.2l0.2,0.3l105.5,145c0.2-0.2,0.3-0.2,0.5-0.3
	c1.4-0.9,2.8-1.8,4-2.8c1.2-0.8,2.5-1.7,3.7-2.6c0.5-0.3,0.9-0.8,1.4-0.9l0,0c1.2-0.9,2.5-1.8,3.7-2.8c0.8-0.6,1.5-1.1,2.1-1.7
	c0.6-0.6,1.5-1.1,2.1-1.7c1.4-1.1,2.8-2.3,4.1-3.5c1.2-1.1,2.8-2.3,4-3.5c2.8-2.5,5.5-5.1,8.3-7.8c1.2-1.2,2.5-2.5,3.7-3.8
	c2.6-2.8,5.1-5.4,7.5-8.1c0.2-0.2,0.2-0.2,0.2-0.2c0.8-0.8,1.5-1.7,2.1-2.5c0.8-0.9,1.5-1.8,2.5-2.9c0.8-0.9,1.5-2,2.3-2.9
	c1.5-1.8,2.9-3.8,4.3-5.7c0.9-1.2,1.8-2.5,2.8-3.7c0.9-1.4,1.8-2.8,2.9-4.1c0.9-1.5,2.1-3.1,3.1-4.6l0,0c0.9-1.5,2-3.2,2.9-4.7
	c0.9-1.5,1.8-3.2,2.9-4.7c0.8-1.4,1.5-2.8,2.3-4.1c0.2-0.3,0.3-0.5,0.5-0.8c0.9-1.7,1.8-3.2,2.6-4.9c0.6-1.2,1.2-2.5,1.8-3.8
	c0-0.2,0.2-0.2,0.2-0.2c0.5-0.8,0.8-1.5,1.1-2.3c0.2-0.2,0.2-0.5,0.2-0.5c0.5-1.2,1.1-2.3,1.5-3.5c0.8-1.5,1.4-3.2,2.1-4.7
	s1.4-3.2,2-4.9c0.5-1.2,0.9-2.5,1.5-3.8c0.5-0.9,0.8-2.1,1.2-3.1c0.5-1.5,1.1-3.1,1.5-4.6l0,0c0.3-0.9,0.6-1.8,0.9-2.8
	c0.3-0.9,0.6-1.8,0.9-2.8c0.5-1.2,0.8-2.5,1.1-3.7c0.3-0.9,0.5-1.8,0.8-2.8c0.5-1.8,0.9-3.7,1.5-5.5c0-0.2,0.2-0.5,0.2-0.5
	c0.3-1.1,0.5-2.1,0.8-3.4c0.5-2.3,0.9-4.6,1.5-6.7c3.2-15.8,5.1-32.3,5.1-49.3C793.8,473.1,792.2,456.7,788.8,440.8z M388.3,393.2
	c-0.3,0.8-0.6,1.2-0.9,2l0,0c-6.3,14.6-11,29.7-14.4,45.6H423L388.3,393.2z M550.8,616l-56.7-76.6h-121
	c14.7,70.6,59.9,129,120.4,158.1c26.7,12.9,56.4,20.1,87.6,20.1c13.5,0,26.8-1.4,39.7-4c0.5-0.2,0.8-0.2,1.2-0.3
	c0.3,0,0.6-0.2,0.9-0.2L550.8,616z"/>
<polygon class="st0" points="249.7,440.8 355.3,351.7 387.4,395.2 387.4,395.2 421.2,440.8 "/>
<polygon class="st0" points="793.8,944.4 662.9,1055 662.6,1054.5 465.9,788.5 413.4,717.6 281.5,539.3 494.1,539.3 622.8,713.3 
	626,717.6 699.7,817.1 793.7,944.1 "/>
<polygon class="st0" points="493.3,539.3 493.3,788.5 465.9,788.5 413.4,717.6 281.5,539.3 "/>
<polygon class="st0" points="1274.2,262.7 1112.7,398.7 1112.3,398.2 977.5,510 873.8,596.1 873.3,596.4 794,488.9 1062.2,262.7 "/>
<polygon class="st0" points="977.5,510 873.8,596.1 833.7,541.9 936.6,454.9 "/>
<polygon class="st0" points="1192.7,801.4 1089.6,888.4 1001.4,768.9 921.3,660.6 1025,574.5 1104.5,682.1 "/>
<path class="st0" d="M228.5,262.7l-63.9,68.2L64,438.4c-2.1-0.6-4.4-1.2-6.6-2L4.3,379.7c-2.8-8.7-4.1-18.1-4.1-27.9
	c0-2.5,0.2-4.9,0.3-7.2L77,262.7H228.5z"/>
<path class="st0" d="M166.9,351.7c0,49.2-37.4,89.1-83.5,89.1c-6.7,0-13.3-0.8-19.6-2.5c-2.1-0.6-4.4-1.2-6.6-2
	c-25.1-8.7-44.9-30-53.1-56.7C1.4,371,0,361.6,0,351.8c0-2.5,0.2-4.9,0.3-7.2C3.5,301.1,36,266.5,76.6,263c2.1-0.2,4.4-0.3,6.7-0.3
	c39.4,0,72.3,29.1,81.2,68.2C166.2,337.4,166.9,344.6,166.9,351.7z"/>
<polygon class="st0" points="793.7,944.1 793.8,944.4 662.9,1055 662.6,1054.5 "/>
<polygon class="st0" points="1192.7,801.4 1089.6,888.4 1001.4,768.9 1104.5,682.1 "/>
<polygon class="st0" points="699.7,817.1 697.4,819 623.5,717.6 620.6,713.6 494,539.3 494.1,539.3 622.8,713.3 626,717.6 "/>
<path class="st0" d="M550.8,616l72,97.1c-0.3,0.2-0.6,0.2-0.9,0.2L550.8,616z"/>
<path class="st0" d="M692.1,684c-0.2,0.2-0.3,0.2-0.5,0.3l-105.5-145L586,539c0.2,0,0.2,0,0.5-0.2L692.1,684z"/>
<rect x="1501.1" y="1262.7" class="st1" width="169.6" height="44.3"/>
<rect x="1911.6" y="1604.8" transform="matrix(0.8051 -0.5931 0.5931 0.8051 -566.4228 1533.4781)" class="st1" width="277.4" height="47.8"/>
<rect x="1472.4" y="1084.3" class="st1" width="182.1" height="47.6"/>
</svg>
